#define 1646763429739_width 50
#define 1646763429739_height 36
static char 1646763429739_bits[] = {
  0x00, 0x00, 0x00, 0x00, 0x00, 0x00, 0x00, 0x00, 0x00, 0x00, 0x00, 0x00, 
  0x00, 0x00, 0x00, 0x00, 0x00, 0x00, 0x00, 0x00, 0x00, 0x00, 0x00, 0x00, 
  0x00, 0x00, 0x00, 0x00, 0x00, 0x00, 0x00, 0x00, 0x00, 0x00, 0x00, 0x00, 
  0x00, 0x00, 0x00, 0x00, 0x00, 0x00, 0x00, 0x00, 0x00, 0x00, 0x00, 0x00, 
  0x00, 0x00, 0x00, 0x00, 0x00, 0x00, 0x00, 0x00, 0x00, 0x00, 0x00, 0x00, 
  0x00, 0x00, 0x00, 0x00, 0x00, 0x00, 0x00, 0x00, 0x00, 0x00, 0x00, 0x00, 
  0x00, 0x00, 0x00, 0x00, 0x00, 0x80, 0x3F, 0x70, 0xC0, 0xC1, 0x00, 0x00, 
  0xC0, 0x3F, 0xF8, 0xC0, 0xC3, 0x01, 0x00, 0x80, 0x01, 0xF8, 0xE0, 0xC3, 
  0x00, 0x00, 0x80, 0x01, 0xD8, 0xE0, 0xC6, 0x01, 0x00, 0xC0, 0x01, 0xCC, 
  0xC1, 0xC6, 0x00, 0x00, 0x80, 0x01, 0xCC, 0xE1, 0xCC, 0x01, 0x00, 0xC0, 
  0x3F, 0x8E, 0xC1, 0xCC, 0x00, 0x00, 0xC0, 0x3F, 0x86, 0xC3, 0xDC, 0x00, 
  0x00, 0x80, 0x01, 0xFE, 0xC3, 0xD8, 0x01, 0x00, 0x80, 0x01, 0xFF, 0xC7, 
  0xD0, 0x00, 0x00, 0xC0, 0x01, 0x07, 0xE7, 0xF0, 0x01, 0x00, 0x80, 0x01, 
  0x03, 0xC6, 0xE0, 0x00, 0x00, 0xC0, 0x81, 0x03, 0xCE, 0xE0, 0x01, 0x00, 
  0x00, 0x00, 0x00, 0x00, 0x00, 0x00, 0x00, 0x00, 0x00, 0x00, 0x00, 0x00, 
  0x00, 0x00, 0x00, 0x00, 0x00, 0x00, 0x00, 0x00, 0x00, 0x00, 0x00, 0x00, 
  0x00, 0x00, 0x00, 0x00, 0x00, 0x00, 0x00, 0x00, 0x00, 0x00, 0x00, 0x00, 
  0x00, 0x00, 0x00, 0x00, 0x00, 0x00, 0x00, 0x00, 0x00, 0x00, 0x00, 0x00, 
  0x00, 0x00, 0x00, 0x00, 0x00, 0x00, 0x00, 0x00, 0x00, 0x00, 0x00, 0x00, 
  0x00, 0x00, 0x00, 0x00, 0x00, 0x00, 0x00, 0x00, 0x00, 0x00, 0x00, 0x00, 
  0x00, 0x00, 0x00, 0x00, 0x00, 0x00, 0x00, 0x00, 0x00, 0x00, 0x00, 0x00, 
  };
