#define 1646763368115_width 50
#define 1646763368115_height 36
static char 1646763368115_bits[] = {
  0x00, 0x00, 0x00, 0x00, 0x00, 0x00, 0x00, 0x00, 0x00, 0x00, 0x00, 0x00, 
  0x00, 0x00, 0x00, 0x00, 0x00, 0x00, 0x00, 0x00, 0x00, 0x00, 0x00, 0x00, 
  0x00, 0x00, 0x00, 0x00, 0x00, 0x00, 0x00, 0x00, 0x00, 0x00, 0x00, 0x00, 
  0x00, 0x00, 0x00, 0x00, 0x00, 0x00, 0x00, 0x00, 0x00, 0x00, 0x00, 0x00, 
  0x00, 0x00, 0x00, 0x00, 0x00, 0x00, 0x00, 0x00, 0x00, 0x00, 0x00, 0x00, 
  0x00, 0x00, 0x00, 0x00, 0x00, 0x00, 0x00, 0x00, 0x00, 0x00, 0x00, 0x00, 
  0x00, 0x00, 0x00, 0x00, 0x00, 0x00, 0x00, 0x00, 0x00, 0x00, 0x00, 0x00, 
  0x00, 0x00, 0x00, 0x00, 0x00, 0x00, 0x00, 0x00, 0x70, 0x00, 0x38, 0x00, 
  0x00, 0x00, 0x38, 0x70, 0x00, 0x38, 0x00, 0x00, 0x00, 0x30, 0x60, 0x00, 
  0x38, 0x80, 0x01, 0x00, 0x30, 0x00, 0x00, 0x38, 0x80, 0x01, 0x00, 0x38, 
  0x70, 0xF8, 0xBB, 0xE7, 0x0F, 0x00, 0x70, 0x70, 0xFC, 0xFB, 0xE7, 0x0F, 
  0x00, 0x38, 0x70, 0xCE, 0x78, 0x8E, 0x01, 0x00, 0x30, 0x60, 0xC6, 0x38, 
  0x8E, 0x01, 0x00, 0x38, 0x70, 0xC6, 0x39, 0x8C, 0x01, 0x00, 0x30, 0x70, 
  0xFE, 0x38, 0xCE, 0x01, 0x00, 0x38, 0x70, 0x7E, 0x38, 0x8E, 0x01, 0x00, 
  0x30, 0x70, 0x06, 0x38, 0x8E, 0x01, 0x00, 0xF8, 0x77, 0xFE, 0x38, 0x8C, 
  0x0F, 0x00, 0xF0, 0x77, 0xFE, 0x39, 0x0E, 0x0F, 0x00, 0x00, 0x00, 0x87, 
  0x01, 0x00, 0x00, 0x00, 0x00, 0x00, 0xC6, 0x01, 0x00, 0x00, 0x00, 0x00, 
  0x00, 0xFF, 0x01, 0x00, 0x00, 0x00, 0x00, 0x00, 0x7C, 0x00, 0x00, 0x00, 
  0x00, 0x00, 0x00, 0x00, 0x00, 0x00, 0x00, 0x00, 0x00, 0x00, 0x00, 0x00, 
  0x00, 0x00, 0x00, 0x00, 0x00, 0x00, 0x00, 0x00, 0x00, 0x00, 0x00, 0x00, 
  0x00, 0x00, 0x00, 0x00, 0x00, 0x00, 0x00, 0x00, 0x00, 0x00, 0x00, 0x00, 
  };
